<?xml version="1.0" encoding="UTF-8"?>
<svg version="1.1" xmlns="http://www.w3.org/2000/svg" width="96" height="96">
<path d="M0 0 C3.1875 0.25 3.1875 0.25 4.94921875 1.7421875 C8.0756557 3.84830384 10.45242406 3.64873989 14.1875 3.625 C15.404375 3.63273438 16.62125 3.64046875 17.875 3.6484375 C21.40816089 3.22345824 22.5463203 2.48709678 25.1875 0.25 C28.375 0 28.375 0 31.1875 0.25 C33.64993493 2.71243493 32.46979478 9.07256222 32.5 12.375 C32.54350586 13.92574219 32.54350586 13.92574219 32.58789062 15.5078125 C32.64151794 21.97609127 32.19489667 26.07056263 28.1875 31.25 C26.0480957 32.43017578 26.0480957 32.43017578 24.1875 33.25 C24.68761092 37.14811438 25.20280773 41.0439144 25.73168945 44.93823242 C25.99634314 46.91025157 26.24923212 48.88383803 26.50195312 50.85742188 C26.67275391 52.10458984 26.84355469 53.35175781 27.01953125 54.63671875 C27.24733276 56.35701294 27.24733276 56.35701294 27.47973633 58.11206055 C28.21840006 61.38699844 29.23339496 63.53625545 31.1875 66.25 C33.15206346 67.42694229 33.15206346 67.42694229 35.3125 68 C39.14471925 69.20721925 39.14471925 69.20721925 40.1875 70.25 C40.46064815 75.98611111 40.46064815 75.98611111 40.1875 78.25 C37.40744788 81.03005212 35.64787394 80.56179051 31.75 80.6640625 C31.08990433 80.68360992 30.42980865 80.70315735 29.74971008 80.72329712 C27.56243676 80.78456013 25.37517745 80.8306438 23.1875 80.875 C21.66690699 80.91097194 20.14631784 80.94710694 18.62573242 80.98339844 C14.62680769 81.07366868 10.62777365 81.14578981 6.62835693 81.21032715 C4.2061195 81.24969736 1.78397987 81.29325818 -0.63818359 81.33691406 C-4.51791019 81.403545 -8.39741351 81.4496696 -12.27758789 81.48016357 C-13.74899287 81.49329679 -15.2203638 81.51117419 -16.69165039 81.53399658 C-18.7568849 81.56388224 -20.82129225 81.57363532 -22.88671875 81.578125 C-24.64375122 81.59214355 -24.64375122 81.59214355 -26.4362793 81.60644531 C-31.48768495 81.07314195 -35.42985019 79.93355658 -38.72070312 75.92651367 C-40.74709087 70.95887306 -40.32433945 65.85769589 -40.3125 60.5625 C-40.34085938 59.42876953 -40.36921875 58.29503906 -40.3984375 57.12695312 C-40.42092945 47.37107044 -38.03176759 40.25040296 -31.125 33.25 C-24.68341734 27.89112818 -17.05083309 24.14658413 -9.66259766 20.26806641 C-7.99434416 19.35006468 -6.39685068 18.30623379 -4.8125 17.25 C-4.45458017 14.50105838 -4.25455233 11.94382981 -4.1875 9.1875 C-3.88179727 0.34504865 -3.88179727 0.34504865 0 0 Z " fill="#FFFFFF" transform="translate(51.8125,3.75)"/>
</svg>
