<?xml version="1.0" encoding="UTF-8"?>
<svg version="1.1" xmlns="http://www.w3.org/2000/svg" width="94" height="94">
<path d="M0 0 C1.875 0.25 1.875 0.25 4 1 C7.68007897 6.25541102 6.43989985 13.88079609 6 20 C5.29462306 22.71228811 4.37562264 24.51329754 3 27 C0.75934489 32.27869639 0.79405522 36.94207264 0.9375 42.5625 C1.04129121 47.55601032 1.08618585 52.10429274 0 57 C-0.2603581 59.76670998 -0.41125078 62.53794465 -0.5625 65.3125 C-0.62727539 66.42334961 -0.62727539 66.42334961 -0.69335938 67.55664062 C-0.79870432 69.37091464 -0.89978316 71.1854355 -1 73 C0.32 73.66 1.64 74.32 3 75 C2.505 76.485 2.505 76.485 2 78 C1.01 78.33 0.02 78.66 -1 79 C-1 79.66 -1 80.32 -1 81 C-2.175625 80.979375 -3.35125 80.95875 -4.5625 80.9375 C-7.19763159 80.93291716 -9.50739504 81.08118321 -12.125 81.5 C-18.08621655 82.26918923 -23.99890357 82.13818314 -30 82 C-30.99 81.98324219 -31.98 81.96648437 -33 81.94921875 C-39.68864039 81.61668691 -45.51592596 79.98158801 -51 76 C-52.1484375 74.03515625 -52.1484375 74.03515625 -53 72 C-53.680625 70.9275 -54.36125 69.855 -55.0625 68.75 C-58.30265325 62.43832601 -57.83154396 54.94038898 -58 48 C-57.34 48 -56.68 48 -56 48 C-55.505 45.03 -55.505 45.03 -55 42 C-54.34 42 -53.68 42 -53 42 C-47.7513189 36.16097645 -44 30.9692967 -44 23 C-44.66 23 -45.32 23 -46 23 C-49.79746835 10.59493671 -49.79746835 10.59493671 -48 7 C-45.625 7.25 -45.625 7.25 -43 8 C-42 9.8125 -42 9.8125 -41 12 C-39.33729713 13.33827304 -37.67083819 14.67189785 -36 16 C-34.88778045 19.33665865 -34.79746221 21.98779662 -34.75 25.5 C-34.72421875 26.6446875 -34.6984375 27.789375 -34.671875 28.96875 C-35 32 -35 32 -36.39453125 33.796875 C-36.92433594 34.19390625 -37.45414063 34.5909375 -38 35 C-42.37477303 38.9514079 -45.12828075 43.38484224 -47 49 C-47.66 49.66 -48.32 50.32 -49 51 C-49.35920966 53.95517192 -49.35920966 53.95517192 -49.3125 57.3125 C-49.32925781 58.44300781 -49.34601562 59.57351562 -49.36328125 60.73828125 C-48.97122864 64.25832347 -48.03261266 66.14147086 -46 69 C-45.80083984 67.75283203 -45.80083984 67.75283203 -45.59765625 66.48046875 C-45.33275391 64.85044922 -45.33275391 64.85044922 -45.0625 63.1875 C-44.88847656 62.10855469 -44.71445312 61.02960938 -44.53515625 59.91796875 C-43.49718047 54.25834899 -41.02882476 51.2733706 -37.25 47.0390625 C-36.63125 46.34554687 -36.0125 45.65203125 -35.375 44.9375 C-34.78460938 44.28652344 -34.19421875 43.63554688 -33.5859375 42.96484375 C-31.9288155 41.06494087 -31.9288155 41.06494087 -30.94921875 38.81640625 C-30 37 -30 37 -27.4375 36 C-26.2309375 35.505 -26.2309375 35.505 -25 35 C-24.26676204 32.98491642 -24.26676204 32.98491642 -24 31 C-23.34 30.67 -22.68 30.34 -22 30 C-22.99 27.69 -23.98 25.38 -25 23 C-25.66 23 -26.32 23 -27 23 C-27.90375653 16.67370431 -27.90375653 11.32629569 -27 5 C-26.34 5 -25.68 5 -25 5 C-24.34 4.01 -23.68 3.02 -23 2 C-22.00871094 2.16371094 -21.01742187 2.32742188 -19.99609375 2.49609375 C-16.00645421 3.06604226 -12.09378059 3.09817505 -8.0625 3.0625 C-7.37865234 3.05798828 -6.69480469 3.05347656 -5.99023438 3.04882812 C-4.32678396 3.0371956 -2.6633795 3.01926694 -1 3 C-0.67 2.01 -0.34 1.02 0 0 Z M-15 4 C-11 5 -11 5 -11 5 Z M-9 4 C-5 5 -5 5 -5 5 Z M-27 10 C-26 13 -26 13 -26 13 Z M-26 14 C-25 16 -25 16 -25 16 Z M-38 17 C-37 19 -37 19 -37 19 Z M-27 17 C-26 19 -26 19 -26 19 Z M-37 19 C-37 20.65 -37 22.3 -37 24 C-36.67 24 -36.34 24 -36 24 C-36 22.35 -36 20.7 -36 19 C-36.33 19 -36.66 19 -37 19 Z M-37 27 C-36 31 -36 31 -36 31 Z M-38 31 C-37 33 -37 33 -37 33 Z M-1 31 C0 33 0 33 0 33 Z M-2 57 C-1 61 -1 61 -1 61 Z M-3 62 C-3 65.3 -3 68.6 -3 72 C-2.67 72 -2.34 72 -2 72 C-2 68.7 -2 65.4 -2 62 C-2.33 62 -2.66 62 -3 62 Z M-40 79 C-40 79.33 -40 79.66 -40 80 C-37.36 80 -34.72 80 -32 80 C-32 79.67 -32 79.34 -32 79 C-34.64 79 -37.28 79 -40 79 Z M-15 79 C-15 79.33 -15 79.66 -15 80 C-13.35 80 -11.7 80 -10 80 C-10 79.67 -10 79.34 -10 79 C-11.65 79 -13.3 79 -15 79 Z M-28 80 C-28 80.33 -28 80.66 -28 81 C-24.7 81 -21.4 81 -18 81 C-18 80.67 -18 80.34 -18 80 C-21.3 80 -24.6 80 -28 80 Z " fill="#888573" transform="translate(70,6)"/>
<path d="M0 0 C2.31 0 4.62 0 7 0 C7 1.32 7 2.64 7 4 C7.7425 3.484375 8.485 2.96875 9.25 2.4375 C12 1 12 1 14.3125 1.3125 C14.869375 1.539375 15.42625 1.76625 16 2 C16.3125 4.625 16.3125 4.625 16 8 C14.37873325 10.03697617 12.71140469 12.03814584 11 14 C10.13457301 16.72113503 10.13457301 16.72113503 10 19 C10.66 19 11.32 19 12 19 C12 24.28 12 29.56 12 35 C11.01 34.67 10.02 34.34 9 34 C9.495 46.375 9.495 46.375 10 59 C10.99 59.495 10.99 59.495 12 60 C12 61.98 12 63.96 12 66 C10.824375 65.979375 9.64875 65.95875 8.4375 65.9375 C5.80236841 65.93291716 3.49260496 66.08118321 0.875 66.5 C-6.63360107 67.46885175 -14.59642054 67.76009625 -22 66 C-22 65.67 -22 65.34 -22 65 C-20.88882813 65.01160156 -19.77765625 65.02320312 -18.6328125 65.03515625 C-10.67698604 65.09238598 -2.90800301 65.00419086 5 64 C5 63.34 5 62.68 5 62 C4.01 62.33 3.02 62.66 2 63 C-2.66297741 63.23656818 -7.3316679 63.18517976 -12 63.1875 C-13.94519531 63.20586914 -13.94519531 63.20586914 -15.9296875 63.22460938 C-17.16976562 63.22654297 -18.40984375 63.22847656 -19.6875 63.23046875 C-20.82574219 63.23457764 -21.96398438 63.23868652 -23.13671875 63.24291992 C-26 63 -26 63 -29 61 C-28.73188497 54.56523917 -26.51717645 50.58503104 -22 46 C-19.96789654 44.5851959 -17.89077461 43.35724944 -15.7421875 42.12890625 C-13.254302 40.51680107 -12.36541313 38.61209468 -11 36 C-8.18433527 32.18158674 -5.35780705 28.35780705 -2 25 C-2.31625851 19.62360528 -5.21995377 13.78004623 -9 10 C-9.3633156 7.16613833 -9.3568671 5.59477849 -7.875 3.125 C-5.07848948 1.44709369 -3.06309468 2.25124352 0 3 C0 2.01 0 1.02 0 0 Z " fill="#393A41" transform="translate(57,21)"/>
<path d="M0 0 C0 0.99 0 1.98 0 3 C-0.99 3.66 -1.98 4.32 -3 5 C-2.87943404 7.36539052 -2.87943404 7.36539052 -2 10 C-1.236875 10.598125 -0.47375 11.19625 0.3125 11.8125 C5.93706536 16.39063459 7.52994643 23.13975 9 30 C3.56494187 31.81168604 -2.313143 31.18467353 -8 31.1875 C-9.94519531 31.20586914 -9.94519531 31.20586914 -11.9296875 31.22460938 C-13.16976562 31.22654297 -14.40984375 31.22847656 -15.6875 31.23046875 C-16.82574219 31.23457764 -17.96398438 31.23868652 -19.13671875 31.24291992 C-22 31 -22 31 -25 29 C-24.731879 22.56509595 -22.51744719 18.58559833 -18 14 C-16.01355734 12.63820044 -13.98421469 11.46361049 -11.8828125 10.2890625 C-9.23476556 8.47608431 -7.87067725 6.18583855 -6.1640625 3.515625 C-4.49074973 1.33694931 -2.6093301 0.6709706 0 0 Z " fill="#3C3D43" transform="translate(53,53)"/>
<path d="M0 0 C2.375 0.25 2.375 0.25 5 1 C6 2.8125 6 2.8125 7 5 C8.66270287 6.33827304 10.32916181 7.67189785 12 9 C13.11221955 12.33665865 13.20253779 14.98779662 13.25 18.5 C13.27578125 19.6446875 13.3015625 20.789375 13.328125 21.96875 C13 25 13 25 11.60546875 26.796875 C11.07566406 27.19390625 10.54585937 27.5909375 10 28 C5.62522697 31.9514079 2.87171925 36.38484224 1 42 C0.34 42.66 -0.32 43.32 -1 44 C-1.32111786 46.92252076 -1.32111786 46.92252076 -1.25 50.25 C-1.25515625 51.36890625 -1.2603125 52.4878125 -1.265625 53.640625 C-0.99076521 57.1167929 -0.38578673 59.80345195 1 63 C1.99 63.66 2.98 64.32 4 65 C4.6875 68.625 4.6875 68.625 5 72 C1.21047908 71.48790258 -0.49318076 70.86026111 -3 68 C-3.91243553 66.69199993 -4.78716024 65.35699201 -5.625 64 C-6.05039063 63.319375 -6.47578125 62.63875 -6.9140625 61.9375 C-9.27113883 57.73206884 -9.31234834 53.50796969 -9.5625 48.8125 C-9.60568359 48.06291016 -9.64886719 47.31332031 -9.69335938 46.54101562 C-9.79922685 44.69421625 -9.9000976 42.84713166 -10 41 C-9.34 41 -8.68 41 -8 41 C-7.505 38.03 -7.505 38.03 -7 35 C-6.34 35 -5.68 35 -5 35 C0.2486811 29.16097645 4 23.9692967 4 16 C3.34 16 2.68 16 2 16 C-1.79746835 3.59493671 -1.79746835 3.59493671 0 0 Z M10 10 C11 12 11 12 11 12 Z M11 12 C11 13.65 11 15.3 11 17 C11.33 17 11.66 17 12 17 C12 15.35 12 13.7 12 12 C11.67 12 11.34 12 11 12 Z M11 20 C12 24 12 24 12 24 Z M10 24 C11 26 11 26 11 26 Z " fill="#6C646A" transform="translate(22,13)"/>
<path d="M0 0 C-0.14473997 6.94751844 -3.21979539 10.19892114 -8 15 C-8.54914062 15.48726562 -9.09828125 15.97453125 -9.6640625 16.4765625 C-11.70734041 18.80661625 -11.85077507 21.27628323 -12.375 24.2578125 C-12.58125 24.83273438 -12.7875 25.40765625 -13 26 C-13.99 26.33 -14.98 26.66 -16 27 C-17.20882096 29.00016466 -17.20882096 29.00016466 -18 31 C-17.67 31 -17.34 31 -17 31 C-16.34 30.01 -15.68 29.02 -15 28 C-14.2575 27.773125 -13.515 27.54625 -12.75 27.3125 C-9.12880798 25.58420381 -7.71193515 23.16701586 -5.52734375 19.875 C-3.85170819 17.81795379 -2.42970137 17.00323153 0 16 C-6.01336675 27.53383459 -6.01336675 27.53383459 -12.4375 30.6875 C-16.99316037 33.15187662 -19.18884378 37.25927774 -21 42 C-21 43.32 -21 44.64 -21 46 C-18.02640551 47.48679725 -15.33700821 47.11112605 -12.0234375 47.09765625 C-11.33819 47.0962413 -10.6529425 47.09482635 -9.94692993 47.09336853 C-7.75624239 47.08776675 -5.5656567 47.07521406 -3.375 47.0625 C-1.89062648 47.05748522 -0.40625135 47.05292228 1.078125 47.04882812 C4.71878315 47.03779677 8.35938164 47.02053099 12 47 C11.505 47.99 11.505 47.99 11 49 C5.6331424 50.38079346 0.12537319 50.11350203 -5.375 50.0625 C-6.76525391 50.05573242 -6.76525391 50.05573242 -8.18359375 50.04882812 C-10.45579709 50.03711574 -12.72786388 50.02071372 -15 50 C-15 50.33 -15 50.66 -15 51 C-17.875 51.125 -17.875 51.125 -21 51 C-23 49 -23 49 -23.9375 45.5 C-24.6673234 41.76314255 -24.6673234 41.76314255 -28 40 C-27.67 39.34 -27.34 38.68 -27 38 C-26.67 38.33 -26.34 38.66 -26 39 C-25.86722656 38.16855469 -25.73445313 37.33710937 -25.59765625 36.48046875 C-25.42105469 35.39378906 -25.24445312 34.30710938 -25.0625 33.1875 C-24.88847656 32.10855469 -24.71445312 31.02960938 -24.53515625 29.91796875 C-23.49718047 24.25834899 -21.02882476 21.2733706 -17.25 17.0390625 C-16.321875 15.99878906 -16.321875 15.99878906 -15.375 14.9375 C-14.78460938 14.28652344 -14.19421875 13.63554688 -13.5859375 12.96484375 C-11.9288155 11.06494087 -11.9288155 11.06494087 -10.94921875 8.81640625 C-10 7 -10 7 -7.4375 6 C-6.633125 5.67 -5.82875 5.34 -5 5 C-4.34786708 2.97536745 -4.34786708 2.97536745 -4 1 C-1 0 -1 0 0 0 Z " fill="#7F7C81" transform="translate(50,36)"/>
<path d="M0 0 C2.31 0 4.62 0 7 0 C7 1.32 7 2.64 7 4 C7.7425 3.484375 8.485 2.96875 9.25 2.4375 C12 1 12 1 14.3125 1.3125 C14.869375 1.539375 15.42625 1.76625 16 2 C16.49732903 6.17756384 16.27466163 7.63625892 13.6875 11.0625 C12.800625 12.031875 11.91375 13.00125 11 14 C10.484375 14.9075 9.96875 15.815 9.4375 16.75 C7.78447049 19.33735054 6.88835447 20.03892832 4 21 C-0.53073277 19.54733871 -4.21355529 17.08136147 -7 13.25 C-7.33 12.5075 -7.66 11.765 -8 11 C-8.33 10.67 -8.66 10.34 -9 10 C-9.29431219 7.2040342 -9.33772308 5.56287181 -7.875 3.125 C-5.07848948 1.44709369 -3.06309468 2.25124352 0 3 C0 2.01 0 1.02 0 0 Z " fill="#2E2C2C" transform="translate(57,21)"/>
<path d="M0 0 C1.299375 0.2475 1.299375 0.2475 2.625 0.5 C8.69761822 1.39266231 14.87966132 1.07639812 21 1 C21.33 2.98 21.66 4.96 22 7 C21.20335938 6.94199219 20.40671875 6.88398438 19.5859375 6.82421875 C12.44114082 6.3033741 12.44114082 6.3033741 6.375 9.5 C5.199375 10.7375 5.199375 10.7375 4 12 C3.34 12 2.68 12 2 12 C1.34 15.63 0.68 19.26 0 23 C-4 21 -4 21 -4.64453125 19.15234375 C-5.06520565 13.60531159 -4.78743791 8.51206539 -4 3 C-3.34 3 -2.68 3 -2 3 C-1.34 2.01 -0.68 1.02 0 0 Z M8 2 C12 3 12 3 12 3 Z M14 2 C18 3 18 3 18 3 Z M-4 8 C-3 11 -3 11 -3 11 Z M-3 12 C-2 14 -2 14 -2 14 Z M-4 15 C-3 17 -3 17 -3 17 Z " fill="#C8CACC" transform="translate(47,8)"/>
<path d="M0 0 C-0.14473997 6.94751844 -3.21979539 10.19892114 -8 15 C-8.82757813 15.77923828 -8.82757813 15.77923828 -9.671875 16.57421875 C-11.20266202 18.02289077 -11.20266202 18.02289077 -11.875 20.5625 C-13.35211007 23.76290514 -14.79851763 23.79944411 -18 25 C-19.08361136 26.82764697 -19.08361136 26.82764697 -20 29 C-21.33333333 31.66666667 -22.66666667 34.33333333 -24 37 C-25.36421031 34.27157939 -24.87807211 32.39046682 -24.5625 29.375 C-24.40974609 27.87066406 -24.40974609 27.87066406 -24.25390625 26.3359375 C-24.17011719 25.56507812 -24.08632813 24.79421875 -24 24 C-23.34 24 -22.68 24 -22 24 C-20.54708473 22.15000304 -20.54708473 22.15000304 -19.125 19.8125 C-16.91009219 16.37427328 -14.61237211 13.15286289 -12 10 C-11.505 9.2575 -11.01 8.515 -10.5 7.75 C-8.74340372 5.70063767 -7.63134223 5.36294376 -5 5 C-4.896875 4.360625 -4.79375 3.72125 -4.6875 3.0625 C-4.460625 2.381875 -4.23375 1.70125 -4 1 C-1 0 -1 0 0 0 Z " fill="#B0B3B8" transform="translate(50,36)"/>
<path d="M0 0 C0.33 0.99 0.66 1.98 1 3 C0.34 3.825 -0.32 4.65 -1 5.5 C-3.78407337 9.31733772 -3.03705781 12.8227939 -2.45703125 17.31640625 C-2.01887903 19.88914622 -1.53133474 22.44497292 -1 25 C-0.34 25 0.32 25 1 25 C4.21808534 27.43794344 4.94429847 28.72149234 5.75 32.75 C5.87375 34.35875 5.87375 34.35875 6 36 C2.19613785 35.48596457 0.54960105 34.82182407 -2 32 C-2.45761719 31.49984375 -2.91523438 30.9996875 -3.38671875 30.484375 C-8.28826437 23.94898084 -7.45431159 16.75358451 -7 9 C-6.34 9 -5.68 9 -5 9 C-4.9175 8.071875 -4.835 7.14375 -4.75 6.1875 C-4 3 -4 3 -1.9375 1.125 C-1.298125 0.75375 -0.65875 0.3825 0 0 Z " fill="#5B5557" transform="translate(21,49)"/>
<path d="M0 0 C0.33 0 0.66 0 1 0 C1.18276122 4.66041121 0.76719039 7.73795259 -1 12 C-2.13775615 18.25765883 -2.04950816 24.38100643 -1.9375 30.73046875 C-1.99390665 33.68124151 -2.4070229 36.12600881 -3 39 C-3.25860232 41.76690154 -3.41124875 44.53790741 -3.5625 47.3125 C-3.60568359 48.05306641 -3.64886719 48.79363281 -3.69335938 49.55664062 C-3.79870432 51.37091464 -3.89978316 53.1854355 -4 55 C-2.68 55.66 -1.36 56.32 0 57 C-0.33 57.99 -0.66 58.98 -1 60 C-1.99 60 -2.98 60 -4 60 C-4 59.01 -4 58.02 -4 57 C-4.99 56.67 -5.98 56.34 -7 56 C-7.33 47.75 -7.66 39.5 -8 31 C-7.01 31 -6.02 31 -5 31 C-4.67 26.05 -4.34 21.1 -4 16 C-4.66 16 -5.32 16 -6 16 C-6.3125 13.875 -6.3125 13.875 -6 11 C-4.35830472 8.97945196 -2.69088222 6.97956942 -1 5 C-0.13457301 2.27886497 -0.13457301 2.27886497 0 0 Z M-4 13 C-3 15 -3 15 -3 15 Z M-5 39 C-4 43 -4 43 -4 43 Z M-6 44 C-6 47.3 -6 50.6 -6 54 C-5.67 54 -5.34 54 -5 54 C-5 50.7 -5 47.4 -5 44 C-5.33 44 -5.66 44 -6 44 Z " fill="#706F77" transform="translate(73,24)"/>
<path d="M0 0 C2.49505087 2.92897276 3.93788228 5.09787752 4 9 C2.12268269 11.10744008 0.41578176 12.74276343 -1.75 14.5 C-5.64435356 17.74832762 -8.54767192 20.46784938 -11 25 C-11.66 25.66 -12.32 26.32 -13 27 C-14.32 27 -15.64 27 -17 27 C-17.268125 27.61875 -17.53625 28.2375 -17.8125 28.875 C-19 31 -19 31 -22 33 C-20.82070468 30.21257469 -19.4919106 28.40299495 -17.5 26.0625 C-14.95602486 23.28900279 -14.95602486 23.28900279 -14.125 20.59765625 C-12.757685 17.44048794 -10.99261071 15.73003155 -8.5 13.375 C-5.95892947 10.95768291 -3.95300782 8.92951172 -2 6 C-1.34 6 -0.68 6 0 6 C0 4.02 0 2.04 0 0 Z " fill="#72767F" transform="translate(52,37)"/>
<path d="M0 0 C2.375 0.25 2.375 0.25 5 1 C6.1875 2.8125 6.1875 2.8125 7 5 C7.37125 5.7425 7.7425 6.485 8.125 7.25 C8.41375 7.8275 8.7025 8.405 9 9 C7.02 8.34 5.04 7.68 3 7 C3.28875 7.58007812 3.5775 8.16015625 3.875 8.7578125 C4.431875 9.92957031 4.431875 9.92957031 5 11.125 C5.37125 11.89070313 5.7425 12.65640625 6.125 13.4453125 C7.19417174 16.56691213 7.39158475 18.71574085 7 22 C5.35546875 24.8515625 5.35546875 24.8515625 3.1875 27.625 C2.12595703 29.00558594 2.12595703 29.00558594 1.04296875 30.4140625 C-0.18989974 31.97459584 -1.4309852 33.52875499 -2.6875 35.0703125 C-4.1030683 37.15153494 -4.65709461 38.80197512 -5.1875 41.25 C-5.455625 42.4875 -5.72375 43.725 -6 45 C-6.66 45 -7.32 45 -8 45 C-8 48.96 -8 52.92 -8 57 C-8.33 57 -8.66 57 -9 57 C-9.33 51.72 -9.66 46.44 -10 41 C-9.34 41 -8.68 41 -8 41 C-7.505 38.03 -7.505 38.03 -7 35 C-6.34 35 -5.68 35 -5 35 C0.2486811 29.16097645 4 23.9692967 4 16 C3.34 16 2.68 16 2 16 C-1.79746835 3.59493671 -1.79746835 3.59493671 0 0 Z " fill="#99989D" transform="translate(22,13)"/>
<path d="M0 0 C0.33 0.99 0.66 1.98 1 3 C0.53625977 3.44279297 0.07251953 3.88558594 -0.40527344 4.34179688 C-2.53099915 6.38359838 -4.64042456 8.44152154 -6.75 10.5 C-7.47960938 11.19609375 -8.20921875 11.8921875 -8.9609375 12.609375 C-13.53269456 17.0980092 -16.47577829 21.10129242 -19 27 C-20.32 27 -21.64 27 -23 27 C-21.63171332 22.89513995 -19.11284836 20.24698633 -16.25 17.0390625 C-15.63125 16.34554687 -15.0125 15.65203125 -14.375 14.9375 C-13.78460938 14.28652344 -13.19421875 13.63554688 -12.5859375 12.96484375 C-10.9288155 11.06494087 -10.9288155 11.06494087 -9.94921875 8.81640625 C-9 7 -9 7 -6.4375 6 C-5.633125 5.67 -4.82875 5.34 -4 5 C-3.34786708 2.97536745 -3.34786708 2.97536745 -3 1 C-2.01 0.67 -1.02 0.34 0 0 Z " fill="#E8E9EE" transform="translate(49,36)"/>
<path d="M0 0 C0.33 0.99 0.66 1.98 1 3 C0.34 3.825 -0.32 4.65 -1 5.5 C-3.78407337 9.31733772 -3.03705781 12.8227939 -2.45703125 17.31640625 C-2.01887903 19.88914622 -1.53133474 22.44497292 -1 25 C-1.99 25.66 -2.98 26.32 -4 27 C-7.3512017 21.61938532 -6.45736571 15.09127971 -6 9 C-4.99171045 4.75275291 -3.72474795 2.4831653 0 0 Z " fill="#3C393D" transform="translate(21,49)"/>
<path d="M0 0 C2.5 1.3125 2.5 1.3125 4 3 C4 3.99 4 4.98 4 6 C3.2575 6.144375 2.515 6.28875 1.75 6.4375 C-0.52027739 6.90187492 -2.75759479 7.41863569 -5 8 C-5 6.68 -5 5.36 -5 4 C-7.64 4.33 -10.28 4.66 -13 5 C-13.33 4.34 -13.66 3.68 -14 3 C-8.98138186 -0.01117088 -5.70722989 -0.55231257 0 0 Z " fill="#7D7457" transform="translate(69,17)"/>
<path d="M0 0 C1.32 0 2.64 0 4 0 C4 2.97 4 5.94 4 9 C3.34 9 2.68 9 2 9 C0.58835041 11.82329919 0.86793035 14.2290079 0.875 17.375 C0.87242188 18.51710938 0.86984375 19.65921875 0.8671875 20.8359375 C0.9761732 23.43236152 1.23538757 25.53624883 2 28 C1.34 28 0.68 28 0 28 C-1.74917565 24.13302078 -2.47399631 20.65781929 -2.875 16.4375 C-2.99617188 15.32246094 -3.11734375 14.20742188 -3.2421875 13.05859375 C-3 10 -3 10 -1.0078125 7.59765625 C-0.34523438 7.07042969 0.31734375 6.54320312 1 6 C0.67 5.67 0.34 5.34 0 5 C-0.99 5.33 -1.98 5.66 -3 6 C-1.125 1.125 -1.125 1.125 0 0 Z " fill="#70686F" transform="translate(20,46)"/>
<path d="M0 0 C2.49505087 2.92897276 3.93788228 5.09787752 4 9 C2.12268269 11.10744008 0.41578176 12.74276343 -1.75 14.5 C-5.6590211 17.76056199 -8.48798896 20.48782971 -11 25 C-13.1875 26.3125 -13.1875 26.3125 -15 27 C-12.18389136 21.24534322 -8.5609452 17.32554691 -3.92578125 12.91796875 C-1.12870979 10.13224443 -0.8204326 8.20432599 -0.4375 4.375 C-0.35371094 3.55773438 -0.26992188 2.74046875 -0.18359375 1.8984375 C-0.12300781 1.27195313 -0.06242187 0.64546875 0 0 Z " fill="#5B5F68" transform="translate(52,37)"/>
<path d="M0 0 C0 0.99 0 1.98 0 3 C-0.66 3.66 -1.32 4.32 -2 5 C-1.125 1.125 -1.125 1.125 0 0 Z M-10 10 C-9.01 10.33 -8.02 10.66 -7 11 C-8.09655288 12.31886772 -9.20253423 13.62990057 -10.3125 14.9375 C-10.92738281 15.66839844 -11.54226562 16.39929688 -12.17578125 17.15234375 C-14 19 -14 19 -17 20 C-17.33 22.64 -17.66 25.28 -18 28 C-18.66 27.67 -19.32 27.34 -20 27 C-19.73140413 20.55369901 -17.35428394 16.71172515 -13 12 C-12.01 11.34 -11.02 10.68 -10 10 Z " fill="#515257" transform="translate(48,55)"/>
<path d="M0 0 C0.99 0.33 1.98 0.66 3 1 C-1.14488189 7.80944882 -1.14488189 7.80944882 -5 9 C-7.140625 8.1015625 -7.140625 8.1015625 -9.25 6.625 C-10.30960938 5.90183594 -10.30960938 5.90183594 -11.390625 5.1640625 C-11.92171875 4.77992187 -12.4528125 4.39578125 -13 4 C-9.93753253 2.21590198 -7.77920727 1.77119979 -4.25 1.875 C-3.45078125 1.89304688 -2.6515625 1.91109375 -1.828125 1.9296875 C-1.22484375 1.95289063 -0.6215625 1.97609375 0 2 C0 1.34 0 0.68 0 0 Z " fill="#373436" transform="translate(66,33)"/>
<path d="M0 0 C0.76953125 1.640625 0.76953125 1.640625 1 4 C-0.80078125 6.734375 -0.80078125 6.734375 -3.3125 9.75 C-7.038627 14.38436601 -9.20052616 18.06105147 -10 24 C-10.66 24 -11.32 24 -12 24 C-12 27.96 -12 31.92 -12 36 C-12.33 36 -12.66 36 -13 36 C-13.33 30.72 -13.66 25.44 -14 20 C-13.34 20 -12.68 20 -12 20 C-11.67 18.02 -11.34 16.04 -11 14 C-10.34 14 -9.68 14 -9 14 C-7.5760131 12.28480923 -6.2336784 10.5012088 -4.9375 8.6875 C-4.22464844 7.70136719 -3.51179688 6.71523438 -2.77734375 5.69921875 C-0.88048365 3.07080941 -0.88048365 3.07080941 0 0 Z " fill="#BABCBF" transform="translate(26,34)"/>
<path d="M0 0 C1.875 0.25 1.875 0.25 4 1 C6.89447856 5.38083241 5.73243536 9.01943959 5 14 C2.69 12.02 0.38 10.04 -2 8 C-1.47731534 5.23723823 -0.89130413 2.6739124 0 0 Z " fill="#5D5E64" transform="translate(70,6)"/>
<path d="M0 0 C3.17134992 0.22652499 4.05609944 1.0607744 6.25 3.4375 C8.54014017 8.09957107 8.36258758 11.90363007 8 17 C7.01 17.33 6.02 17.66 5 18 C4.89042969 17.26394531 4.78085937 16.52789062 4.66796875 15.76953125 C3.82022886 10.55214019 3.11712771 6.39231632 0 2 C0 1.34 0 0.68 0 0 Z " fill="#4F4B50" transform="translate(24,19)"/>
<path d="M0 0 C0.33 0.66 0.66 1.32 1 2 C0.01 3.485 0.01 3.485 -1 5 C-1.66 5 -2.32 5 -3 5 C-3.26554687 5.55171875 -3.53109375 6.1034375 -3.8046875 6.671875 C-5.13882709 9.27039525 -6.61258631 11.75122955 -8.125 14.25 C-8.66382813 15.14203125 -9.20265625 16.0340625 -9.7578125 16.953125 C-10.16773438 17.62859375 -10.57765625 18.3040625 -11 19 C-12.32 18.67 -13.64 18.34 -15 18 C-14.67 17.34 -14.34 16.68 -14 16 C-13.67 16.33 -13.34 16.66 -13 17 C-11.44834255 14.53145406 -10.09072182 12.25920519 -9.125 9.5 C-7.17962172 5.17693715 -3.880768 2.58717866 0 0 Z " fill="#8D8F94" transform="translate(37,58)"/>
<path d="M0 0 C5.28 0 10.56 0 16 0 C16 0.66 16 1.32 16 2 C15.34 2 14.68 2 14 2 C14 2.66 14 3.32 14 4 C13.25234375 4.06058594 12.5046875 4.12117187 11.734375 4.18359375 C10.74953125 4.26738281 9.7646875 4.35117188 8.75 4.4375 C7.28820312 4.55931641 7.28820312 4.55931641 5.796875 4.68359375 C3.43538247 4.95074584 1.28098935 5.35371968 -1 6 C-0.67 4.02 -0.34 2.04 0 0 Z M3 1 C7 2 7 2 7 2 Z M9 1 C13 2 13 2 13 2 Z " fill="#D7DDDE" transform="translate(52,9)"/>
<path d="M0 0 C1.65 0.33 3.3 0.66 5 1 C5.78388677 8.99564507 5.78388677 8.99564507 3 12.5625 C2.01 13.366875 1.02 14.17125 0 15 C-1.44950633 16.42539254 -2.88644351 17.86364687 -4.3125 19.3125 C-5.54166667 20.54166667 -6.77083333 21.77083333 -8 23 C-8 20 -8 20 -6.35546875 18.2734375 C-5.64003906 17.64695312 -4.92460938 17.02046875 -4.1875 16.375 C0.04708613 12.34277462 1.74444777 8.64998504 3 3 C2.01 2.67 1.02 2.34 0 2 C0 1.34 0 0.68 0 0 Z " fill="#8F9197" transform="translate(47,33)"/>
<path d="M0 0 C-0.845625 0.7425 -1.69125 1.485 -2.5625 2.25 C-5.21701723 4.65295786 -5.21701723 4.65295786 -5.0625 7.125 C-3.74743226 9.44570777 -2.22405166 10.56512796 0 12 C-1.65 12.33 -3.3 12.66 -5 13 C-5.474375 12.195625 -5.94875 11.39125 -6.4375 10.5625 C-7.76900154 8.15246512 -7.76900154 8.15246512 -9 7 C-9.29431219 4.2040342 -9.33772308 2.56287181 -7.875 0.125 C-5.07848948 -1.55290631 -3.06309468 -0.74875648 0 0 Z " fill="#403B3A" transform="translate(57,24)"/>
<path d="M0 0 C0.33 0 0.66 0 1 0 C1.33 2.64 1.66 5.28 2 8 C6.455 8.99 6.455 8.99 11 10 C8 13 8 13 4.9375 13.3125 C2 13 2 13 0 11 C-0.703125 9.16015625 -0.703125 9.16015625 -1.25 7.0625 C-1.44078125 6.37285156 -1.6315625 5.68320313 -1.828125 4.97265625 C-2 3 -2 3 0 0 Z " fill="#7D7676" transform="translate(27,74)"/>
<path d="M0 0 C1.65 1.65 3.3 3.3 5 5 C5.66 4.01 6.32 3.02 7 2 C7.05437607 3.58294782 7.09296271 5.16644256 7.125 6.75 C7.14820312 7.63171875 7.17140625 8.5134375 7.1953125 9.421875 C6.99139502 12.1135858 6.36551721 13.69904974 5 16 C4.87044922 15.00419922 4.87044922 15.00419922 4.73828125 13.98828125 C3.78174263 7.97700641 2.81850592 4.80408362 -2 1 C-1.34 0.67 -0.68 0.34 0 0 Z " fill="#8C8C9C" transform="translate(69,14)"/>
<path d="M0 0 C0.99 0.99 1.98 1.98 3 3 C-0.58668313 5.39112209 -2.16396569 5.23381027 -6.41796875 5.1953125 C-7.67158203 5.18886719 -8.92519531 5.18242188 -10.21679688 5.17578125 C-12.18229492 5.15064453 -12.18229492 5.15064453 -14.1875 5.125 C-15.52277987 5.11496639 -16.85806689 5.1058412 -18.19335938 5.09765625 C-21.46242015 5.07405292 -24.73112028 5.04112594 -28 5 C-28 4.67 -28 4.34 -28 4 C-19.09 4 -10.18 4 -1 4 C-0.67 2.68 -0.34 1.36 0 0 Z " fill="#4E4A4D" transform="translate(59,79)"/>
<path d="M0 0 C1.98 0.495 1.98 0.495 4 1 C4.33 2.65 4.66 4.3 5 6 C2.03 8.475 2.03 8.475 -1 11 C-0.67 7.37 -0.34 3.74 0 0 Z " fill="#635D63" transform="translate(47,8)"/>
<path d="M0 0 C0 0.33 0 0.66 0 1 C-1.794375 1.37125 -1.794375 1.37125 -3.625 1.75 C-7.698214 2.74663747 -10.58073618 4.5576687 -14 7 C-14.66 7 -15.32 7 -16 7 C-16.66 8.32 -17.32 9.64 -18 11 C-18 8 -18 8 -15.75 5.5 C-14.8425 4.675 -13.935 3.85 -13 3 C-12.4225 2.401875 -11.845 1.80375 -11.25 1.1875 C-7.66401673 -0.70510228 -3.97341386 -0.22923542 0 0 Z " fill="#888B94" transform="translate(66,14)"/>
<path d="M0 0 C0.66 0.33 1.32 0.66 2 1 C0.625 2.5 0.625 2.5 -1 4 C-1.66 4 -2.32 4 -3 4 C-3.66 7.63 -4.32 11.26 -5 15 C-6.32 14.34 -7.64 13.68 -9 13 C-9 9.5601241 -8.53558242 7.56728708 -6.15234375 5.04296875 C-4.14191738 3.30201752 -2.10706247 1.62229411 0 0 Z " fill="#B0AEB0" transform="translate(52,16)"/>
<path d="M0 0 C0.33 0.99 0.66 1.98 1 3 C-0.07356677 4.15498897 -1.15929788 5.29867867 -2.25 6.4375 C-2.85328125 7.07558594 -3.4565625 7.71367188 -4.078125 8.37109375 C-6.10048016 10.08516306 -7.41270605 10.59358878 -10 11 C-10 10.01 -10 9.02 -10 8 C-9.38125 7.71125 -8.7625 7.4225 -8.125 7.125 C-5.00448298 5.47296158 -4.12642595 4.37927784 -3 1 C-2.01 0.67 -1.02 0.34 0 0 Z " fill="#EAECF1" transform="translate(49,36)"/>
<path d="M0 0 C0.33 0 0.66 0 1 0 C1.24403837 6.22297833 0.43600559 9.84599161 -3 15 C-3.33 14.34 -3.66 13.68 -4 13 C-4.66 13.99 -5.32 14.98 -6 16 C-6.3125 13.875 -6.3125 13.875 -6 11 C-4.35830472 8.97945196 -2.69088222 6.97956942 -1 5 C-0.13457301 2.27886497 -0.13457301 2.27886497 0 0 Z " fill="#635E5D" transform="translate(73,24)"/>
<path d="M0 0 C3.96 0.33 7.92 0.66 12 1 C10.68 2.32 9.36 3.64 8 5 C4.35446828 3.7191375 2.83328987 2.83328987 0 0 Z " fill="#222224" transform="translate(53,36)"/>
<path d="M0 0 C0.33 0.66 0.66 1.32 1 2 C0.175 1.938125 -0.65 1.87625 -1.5 1.8125 C-5.88193696 2.04724662 -8.95495082 3.32618654 -13 5 C-13.33 4.34 -13.66 3.68 -14 3 C-8.99067246 -0.00559652 -5.67276511 -0.29341888 0 0 Z " fill="#575A65" transform="translate(69,17)"/>
<path d="M0 0 C0.33 0 0.66 0 1 0 C1.01417969 0.68707031 1.02835937 1.37414062 1.04296875 2.08203125 C1.18718817 4.80660898 1.39137986 7.3383584 2 10 C4.37255115 12.21306951 4.37255115 12.21306951 7 13 C6.67 13.99 6.34 14.98 6 16 C5.01 16 4.02 16 3 16 C3 15.01 3 14.02 3 13 C2.01 12.67 1.02 12.34 0 12 C0 8.04 0 4.08 0 0 Z " fill="#776D80" transform="translate(66,68)"/>
<path d="M0 0 C0.66 0.33 1.32 0.66 2 1 C1.4225 1.66 0.845 2.32 0.25 3 C-2.35741329 6.47655106 -4.16930498 10.07569099 -6 14 C-6.33 14 -6.66 14 -7 14 C-7.4375 11.5 -7.4375 11.5 -7 8 C-4.91536818 5.08465023 -2.52494637 2.53782875 0 0 Z " fill="#67686B" transform="translate(35,64)"/>
<path d="M0 0 C0.33 0.99 0.66 1.98 1 3 C-0.27358732 4.71275535 -1.61423077 6.37667033 -3 8 C-3.70885894 9.31138904 -4.39456452 10.63777017 -5 12 C-6 9 -6 9 -4.75 5.4375 C-3 2 -3 2 0 0 Z " fill="#464045" transform="translate(21,49)"/>
<path d="M0 0 C0.99 0.99 1.98 1.98 3 3 C0.16082777 3.94639074 -1.56413754 4.10653794 -4.5 4.0625 C-5.2734375 4.05347656 -6.046875 4.04445313 -6.84375 4.03515625 C-7.5553125 4.02355469 -8.266875 4.01195312 -9 4 C-9.99 4 -10.98 4 -12 4 C-11.67 3.34 -11.34 2.68 -11 2 C-7.37 2 -3.74 2 0 2 C0 1.34 0 0.68 0 0 Z " fill="#AFB3BE" transform="translate(66,11)"/>
<path d="M0 0 C0.99 0.99 1.98 1.98 3 3 C2.34 3 1.68 3 1 3 C1 6.63 1 10.26 1 14 C0.67 14 0.34 14 0 14 C-0.19393875 11.85473901 -0.37998676 9.70876323 -0.5625 7.5625 C-0.71912109 5.77005859 -0.71912109 5.77005859 -0.87890625 3.94140625 C-0.91886719 2.97074219 -0.95882812 2.00007813 -1 1 C-0.67 0.67 -0.34 0.34 0 0 Z " fill="#535360" transform="translate(66,54)"/>
<path d="M0 0 C-0.639375 0.12375 -1.27875 0.2475 -1.9375 0.375 C-2.618125 0.58125 -3.29875 0.7875 -4 1 C-4.33 1.66 -4.66 2.32 -5 3 C-5.66 3 -6.32 3 -7 3 C-7.66 4.32 -8.32 5.64 -9 7 C-9.22417836 4.2351335 -9.32233508 2.53722513 -7.875 0.125 C-5.07848948 -1.55290631 -3.06309468 -0.74875648 0 0 Z " fill="#62513E" transform="translate(57,24)"/>
<path d="M0 0 C2.31 0 4.62 0 7 0 C6.67 1.32 6.34 2.64 6 4 C4.35 3.67 2.7 3.34 1 3 C0.67 2.01 0.34 1.02 0 0 Z " fill="#454341" transform="translate(57,21)"/>
<path d="M0 0 C0.66 0.33 1.32 0.66 2 1 C1.34 2.98 0.68 4.96 0 7 C-1.32 7 -2.64 7 -4 7 C-3.02391783 4.07175348 -1.89213369 2.38573379 0 0 Z " fill="#E1D4E4" transform="translate(30,56)"/>
<path d="M0 0 C0 0.99 0 1.98 0 3 C-0.99 3.66 -1.98 4.32 -3 5 C-3.66 5.99 -4.32 6.98 -5 8 C-5 4 -5 4 -3 1 C-2.01 0.67 -1.02 0.34 0 0 Z " fill="#43464D" transform="translate(53,53)"/>
<path d="M0 0 C2.45391569 3.68087353 2.22802759 6.44355588 2.125 10.6875 C2.11597656 11.38939453 2.10695313 12.09128906 2.09765625 12.81445312 C2.07413704 14.54311525 2.03826713 16.27160145 2 18 C1.67 18 1.34 18 1 18 C0.67 12.06 0.34 6.12 0 0 Z " fill="#545459" transform="translate(71,40)"/>
<path d="M0 0 C0.33 1.32 0.66 2.64 1 4 C-0.9375 6.25 -0.9375 6.25 -3 8 C-3.66 7.67 -4.32 7.34 -5 7 C-3.35 4.69 -1.7 2.38 0 0 Z " fill="#606570" transform="translate(42,56)"/>
<path d="M0 0 C0.309375 0.639375 0.61875 1.27875 0.9375 1.9375 C1.8345163 3.93610821 1.8345163 3.93610821 3 5 C3.04063832 6.66617115 3.042721 8.33388095 3 10 C1.5 8.9375 1.5 8.9375 0 7 C-0.1875 3.3125 -0.1875 3.3125 0 0 Z " fill="#56555D" transform="translate(72,10)"/>
<path d="M0 0 C0.33 0 0.66 0 1 0 C1 4.29 1 8.58 1 13 C0.67 13 0.34 13 0 13 C0 8.71 0 4.42 0 0 Z " fill="#54415B" transform="translate(21,57)"/>
<path d="M0 0 C0.33 0 0.66 0 1 0 C0.67 2.64 0.34 5.28 0 8 C-0.66 6.68 -1.32 5.36 -2 4 C-1.34 4 -0.68 4 0 4 C0 2.68 0 1.36 0 0 Z " fill="#B1B1B1" transform="translate(24,66)"/>
<path d="M0 0 C0.33 0 0.66 0 1 0 C1 3.3 1 6.6 1 10 C0.67 10 0.34 10 0 10 C0 6.7 0 3.4 0 0 Z " fill="#877F7F" transform="translate(11,59)"/>
<path d="M0 0 C0.33 0.99 0.66 1.98 1 3 C0.01 3.495 0.01 3.495 -1 4 C-0.67 2.68 -0.34 1.36 0 0 Z " fill="#BFD8D8" transform="translate(24,34)"/>
<path d="M0 0 C0.33 0 0.66 0 1 0 C1 1.65 1 3.3 1 5 C0.67 5 0.34 5 0 5 C0 3.35 0 1.7 0 0 Z " fill="#656565" transform="translate(25,29)"/>
<path d="M0 0 C0.33 0 0.66 0 1 0 C1 1.65 1 3.3 1 5 C0.67 5 0.34 5 0 5 C0 3.35 0 1.7 0 0 Z " fill="#FFFFFF" transform="translate(77,16)"/>
<path d="M0 0 C0.33 0 0.66 0 1 0 C1 1.65 1 3.3 1 5 C0.67 5 0.34 5 0 5 C0 3.35 0 1.7 0 0 Z " fill="#2A2A2A" transform="translate(76,11)"/>
<path d="M0 0 C0 3 0 3 0 3 Z " fill="#2F2F2F" transform="translate(26,48)"/>
<path d="M0 0 C0 3 0 3 0 3 Z " fill="#AFAFFF" transform="translate(19,42)"/>
<path d="M0 0 C1 4 1 4 1 4 Z " fill="#353535" transform="translate(76,26)"/>
<path d="M0 0 C1 4 1 4 1 4 Z " fill="#E9E9E9" transform="translate(19,16)"/>
<path d="" fill="#464646" transform="translate(0,0)"/>
<path d="" fill="#C6C6C6" transform="translate(0,0)"/>
<path d="" fill="#AA38AA" transform="translate(0,0)"/>
<path d="" fill="#555555" transform="translate(0,0)"/>
<path d="M0 0 C3 1 3 1 3 1 Z " fill="#717171" transform="translate(47,6)"/>
<path d="" fill="#2A2A2A" transform="translate(0,0)"/>
<path d="" fill="#5F5F5F" transform="translate(0,0)"/>
<path d="" fill="#7F7F7F" transform="translate(0,0)"/>
<path d="" fill="#FFFFFF" transform="translate(0,0)"/>
<path d="" fill="#FFFFFF" transform="translate(0,0)"/>
<path d="" fill="#727272" transform="translate(0,0)"/>
<path d="" fill="#FFFFFF" transform="translate(0,0)"/>
<path d="" fill="#B4B4B4" transform="translate(0,0)"/>
<path d="" fill="#FFFFFF" transform="translate(0,0)"/>
<path d="" fill="#DFDFDF" transform="translate(0,0)"/>
<path d="" fill="#3F3F3F" transform="translate(0,0)"/>
<path d="" fill="#3F3F3F" transform="translate(0,0)"/>
<path d="" fill="#DFDFDF" transform="translate(0,0)"/>
<path d="" fill="#7F0000" transform="translate(0,0)"/>
<path d="" fill="#D4D4D4" transform="translate(0,0)"/>
<path d="" fill="#DFDFDF" transform="translate(0,0)"/>
<path d="" fill="#7F7F7F" transform="translate(0,0)"/>
<path d="" fill="#7F3F3F" transform="translate(0,0)"/>
<path d="" fill="#7F7F7F" transform="translate(0,0)"/>
<path d="" fill="#000000" transform="translate(0,0)"/>
<path d="" fill="#7F7F7F" transform="translate(0,0)"/>
<path d="" fill="#7F3F3F" transform="translate(0,0)"/>
<path d="" fill="#555555" transform="translate(0,0)"/>
<path d="" fill="#BFBFBF" transform="translate(0,0)"/>
<path d="" fill="#FFFFFF" transform="translate(0,0)"/>
<path d="" fill="#FFFFFF" transform="translate(0,0)"/>
<path d="" fill="#555555" transform="translate(0,0)"/>
<path d="" fill="#FFFFFF" transform="translate(0,0)"/>
<path d="" fill="#FFFFFF" transform="translate(0,0)"/>
<path d="" fill="#CCCCFF" transform="translate(0,0)"/>
<path d="" fill="#AAAAAA" transform="translate(0,0)"/>
<path d="" fill="#555555" transform="translate(0,0)"/>
<path d="" fill="#FFFFFF" transform="translate(0,0)"/>
<path d="" fill="#AAAAFF" transform="translate(0,0)"/>
<path d="" fill="#3F0000" transform="translate(0,0)"/>
<path d="" fill="#555555" transform="translate(0,0)"/>
<path d="" fill="#FFFFFF" transform="translate(0,0)"/>
<path d="" fill="#FFFFFF" transform="translate(0,0)"/>
<path d="" fill="#FFFFFF" transform="translate(0,0)"/>
<path d="" fill="#FFFFFF" transform="translate(0,0)"/>
<path d="" fill="#AAAAAA" transform="translate(0,0)"/>
<path d="" fill="#7F7F7F" transform="translate(0,0)"/>
<path d="" fill="#7F7F7F" transform="translate(0,0)"/>
<path d="" fill="#7F7F3F" transform="translate(0,0)"/>
<path d="" fill="#555555" transform="translate(0,0)"/>
<path d="" fill="#7F7F7F" transform="translate(0,0)"/>
<path d="" fill="#000000" transform="translate(0,0)"/>
<path d="" fill="#7F7F7F" transform="translate(0,0)"/>
<path d="" fill="#7F7F7F" transform="translate(0,0)"/>
<path d="" fill="#AAAAFF" transform="translate(0,0)"/>
<path d="" fill="#AAAAAA" transform="translate(0,0)"/>
<path d="" fill="#AAAAFF" transform="translate(0,0)"/>
<path d="" fill="#BFBFBF" transform="translate(0,0)"/>
<path d="" fill="#BFBFBF" transform="translate(0,0)"/>
<path d="" fill="#FFFFFF" transform="translate(0,0)"/>
<path d="" fill="#000000" transform="translate(0,0)"/>
<path d="" fill="#000000" transform="translate(0,0)"/>
<path d="" fill="#000000" transform="translate(0,0)"/>
<path d="" fill="#00FFFF" transform="translate(0,0)"/>
<path d="" fill="#00FFFF" transform="translate(0,0)"/>
<path d="" fill="#FFFFFF" transform="translate(0,0)"/>
</svg>
